# 
# Generated by Sweet Home 3D - ? 9 21 22:00:58 JST 2023
# http://www.sweethome3d.com/
# 
mtllib materials.mtl
g 1_1
usemtl 1
v 252.57193 182.7 149.18736
v 251.0712 181.20041 149.18736
v 164.57266 181.20041 149.18736
v 163.07193 182.7 149.18736
vt 348.52347 0.0 0
vt 347.02347 0.0 0
vt 260.56723 0.0 0
vt 259.06723 0.0 0
vn 0.0 -0 -1.0
f 1/1/1 2/2/1 3/3/1
f 1/1/1 3/3/1 4/4/1
g 2_2
usemtl 1
v 249.57047 179.70082 149.18736
v 166.0734 179.70082 149.18736
vt 345.52347 0.0 0
vt 262.06723 0.0 0
f 2/2/1 5/5/1 6/6/1
f 2/2/1 6/6/1 3/3/1
g 3_3
usemtl 1
v 164.57266 181.20041 152.28737
v 163.07193 182.7 152.28737
v 252.57193 182.7 152.28737
v 251.0712 181.20041 152.28737
vt 0.0 0.0 0
vt 0.10606601 0.0 0
vt 0.10606601 0.155 0
vt 0.0 0.155 0
vt -4.472812 0.0 0
vt -4.472812 0.155 0
vn -0.70737594 -0.7068375 0
vn 0.70737594 -0.7068375 0
vn 0.0 1.0 -0
f 4/7/2 3/8/2 7/9/2
f 4/7/2 7/9/2 8/10/2
f 2/7/3 1/8/3 9/9/3
f 2/7/3 9/9/3 10/10/3
f 1/11/4 4/7/4 8/10/4
f 1/11/4 8/10/4 9/12/4
g 4_4
usemtl 1
v 166.0734 179.70082 152.28737
v 249.57047 179.70082 152.28737
vt 4.172812 0.0 0
vt 4.172812 0.155 0
vn 0.0 -1.0 0
f 3/7/2 6/8/2 11/9/2
f 3/7/2 11/9/2 7/10/2
f 6/7/5 5/13/5 12/14/5
f 6/7/5 12/14/5 11/10/5
f 5/7/3 2/8/3 10/9/3
f 5/7/3 10/9/3 12/10/3
g 5_5
usemtl 5
vt -9.29 -0.0000004 0
vt -9.215021 0.07503622 0
vt -9.215021 4.399963 0
vt -9.290001 4.4749994 0
vn 0.0 0 1.0
f 8/15/6 7/16/6 10/17/6
f 8/15/6 10/17/6 9/18/6
g 6_6
usemtl 5
vt -9.14004 0.15007284 0
vt -9.140041 4.3249264 0
f 7/16/6 11/19/6 12/20/6
f 7/16/6 12/20/6 10/17/6
g 7_7
usemtl 1
v 252.57193 0.0000152 149.18736
v 251.0712 1.4996067 149.18736
f 13/1/1 14/2/1 2/2/1
f 13/1/1 2/2/1 1/1/1
g 8_8
usemtl 1
v 249.57047 2.9991982 149.18736
f 14/2/1 15/5/1 5/5/1
f 14/2/1 5/5/1 2/2/1
g 9_9
usemtl 1
v 252.57193 0.0000153 152.28737
v 251.0712 1.4996067 152.28737
vt -9.137488 0.0 0
vt -9.137488 0.155 0
vn -0.70737594 0.7068375 -0
vn 1.0 0.0 0.0
f 1/7/7 2/8/7 10/9/7
f 1/7/7 10/9/7 9/10/7
f 14/7/2 13/8/2 16/9/2
f 14/7/2 16/9/2 17/10/2
f 13/21/8 1/7/8 9/10/8
f 13/21/8 9/10/8 16/22/8
g 10_10
usemtl 1
v 249.57047 2.9991982 152.28737
vt 8.837488 0.0 0
vt 8.837488 0.155 0
vn -1.0 0.0 0.0
f 2/7/7 5/8/7 12/9/7
f 2/7/7 12/9/7 10/10/7
f 5/7/9 15/23/9 18/24/9
f 5/7/9 18/24/9 12/10/9
f 15/7/2 14/8/2 17/9/2
f 15/7/2 17/9/2 18/10/2
g 11_11
usemtl 5
vt -0.22998066 4.3999634 0
vt -0.15500127 4.475 0
f 9/18/6 10/17/6 17/25/6
f 9/18/6 17/25/6 16/26/6
g 12_12
usemtl 5
vt -0.30496007 4.324927 0
f 10/17/6 12/20/6 18/27/6
f 10/17/6 18/27/6 17/25/6
g 13_13
usemtl 1
v 163.07193 -0 149.18736
v 164.57266 1.4995915 149.18736
f 13/1/1 19/4/1 20/3/1
f 13/1/1 20/3/1 14/2/1
g 14_14
usemtl 1
v 166.0734 2.999183 149.18736
f 14/2/1 20/3/1 21/6/1
f 14/2/1 21/6/1 15/5/1
g 15_15
usemtl 1
v 163.07193 0 152.28737
v 164.57266 1.4995915 152.28737
vn 0.0000002 -1.0 0
vn 0.70737594 0.7068375 -0
f 20/7/7 19/8/7 22/9/7
f 20/7/7 22/9/7 23/10/7
f 19/11/10 13/7/10 16/10/10
f 19/11/10 16/10/10 22/12/10
f 13/7/11 14/8/11 17/9/11
f 13/7/11 17/9/11 16/10/11
g 16_16
usemtl 1
v 166.0734 2.999183 152.28737
vn -0.0000002 1.0 -0
f 15/7/12 21/13/12 24/14/12
f 15/7/12 24/14/12 18/10/12
f 21/7/7 20/8/7 23/9/7
f 21/7/7 23/9/7 24/10/7
f 14/7/11 15/8/11 18/9/11
f 14/7/11 18/9/11 17/10/11
g 17_17
usemtl 5
vt -0.22997971 0.075036615 0
vt -0.15500031 -0 0
f 17/25/6 23/28/6 22/29/6
f 17/25/6 22/29/6 16/26/6
g 18_18
usemtl 5
vt -0.30495912 0.15007323 0
f 18/27/6 24/30/6 23/28/6
f 18/27/6 23/28/6 17/25/6
g 19_19
usemtl 1
f 3/3/1 20/3/1 19/4/1
f 3/3/1 19/4/1 4/4/1
g 20_20
usemtl 1
f 6/6/1 21/6/1 20/3/1
f 6/6/1 20/3/1 3/3/1
g 21_21
usemtl 1
f 4/21/9 19/7/9 22/10/9
f 4/21/9 22/10/9 8/22/9
f 19/7/3 20/8/3 23/9/3
f 19/7/3 23/9/3 22/10/3
f 3/7/11 4/8/11 8/9/11
f 3/7/11 8/9/11 7/10/11
g 22_22
usemtl 1
vt 8.837489 0.0 0
vt 8.837489 0.155 0
f 20/7/3 21/8/3 24/9/3
f 20/7/3 24/9/3 23/10/3
f 21/7/8 6/31/8 11/32/8
f 21/7/8 11/32/8 24/10/8
f 6/7/11 3/8/11 7/9/11
f 6/7/11 7/9/11 11/10/11
g 23_23
usemtl 5
f 8/15/6 22/29/6 23/28/6
f 8/15/6 23/28/6 7/16/6
g 24_24
usemtl 5
f 7/16/6 23/28/6 24/30/6
f 7/16/6 24/30/6 11/19/6
g 25_25
usemtl 1
v 251.0712 9.103522 149.18736
v 251.0712 7.6039314 149.18736
v 164.57266 7.6039314 149.18736
v 164.57266 9.103522 149.18736
f 25/2/1 26/2/1 27/3/1
f 25/2/1 27/3/1 28/3/1
g 26_26
usemtl 1
v 251.0712 6.1043396 149.18736
v 164.57266 6.1043396 149.18736
f 26/2/1 29/2/1 30/3/1
f 26/2/1 30/3/1 27/3/1
g 27_27
usemtl 1
v 164.57266 7.6039314 152.28737
v 164.57266 9.103522 152.28737
v 251.0712 9.103522 152.28737
v 251.0712 7.6039314 152.28737
vt 0.075 0.0 0
vt 0.075 0.155 0
vt -4.322812 0.0 0
vt -4.322812 0.155 0
f 28/7/9 27/33/9 31/34/9
f 28/7/9 31/34/9 32/10/9
f 26/7/8 25/33/8 33/34/8
f 26/7/8 33/34/8 34/10/8
f 25/35/4 28/7/4 32/10/4
f 25/35/4 32/10/4 33/36/4
g 28_28
usemtl 1
v 164.57266 6.1043396 152.28737
v 251.0712 6.1043396 152.28737
vt 4.322812 0.0 0
vt 4.322812 0.155 0
f 27/7/9 30/33/9 35/34/9
f 27/7/9 35/34/9 31/10/9
f 30/7/5 29/37/5 36/38/5
f 30/7/5 36/38/5 35/10/5
f 29/7/8 26/33/8 34/34/8
f 29/7/8 34/34/8 36/10/8
g 29_29
usemtl 5
vt -0.6101761 0.07503659 0
vt -0.5351967 0.0750366 0
vt -0.5351969 4.3999634 0
vt -0.61017627 4.3999634 0
f 32/39/6 31/40/6 34/41/6
f 32/39/6 34/41/6 33/42/6
g 30_30
usemtl 5
vt -0.4602173 0.0750366 0
vt -0.46021748 4.3999634 0
f 31/40/6 35/43/6 36/44/6
f 31/40/6 36/44/6 34/41/6
g 1_31_31
usemtl bottom
v 165.0604 7.116576 149.68736
v 250.10197 7.116576 149.68736
v 250.10197 2.117938 149.68736
v 165.0604 2.117938 149.68736
vt 1.0 0.0 0
vt 1.0 1.0 0
vt 0.0 1.0 0
f 37/7/1 38/45/1 39/46/1
f 37/7/1 39/46/1 40/47/1
g 2_32_32
usemtl back
v 165.0604 7.116576 151.68736
v 250.10197 7.116576 151.68736
f 38/7/4 37/45/4 41/46/4
f 38/7/4 41/46/4 42/47/4
g 3_33_33
usemtl left
v 165.0604 2.117938 151.68736
f 37/7/9 40/45/9 43/46/9
f 37/7/9 43/46/9 41/47/9
g 4_34_34
usemtl right
v 250.10197 2.117938 151.68736
f 39/7/8 38/45/8 42/46/8
f 39/7/8 42/46/8 44/47/8
g 5_35_35
usemtl front
f 40/7/5 39/45/5 44/46/5
f 40/7/5 44/46/5 43/47/5
g 6_36_36
usemtl top
f 43/7/6 44/45/6 42/46/6
f 43/7/6 42/46/6 41/47/6
g 1_37_37
usemtl 1_1_37
v 251.0931 151.33354 149.28737
v 251.0931 150.83368 149.28737
v 164.55077 150.83368 149.28737
v 164.55077 151.33354 149.28737
vt 88.456276 2101.8 0
vt 2.0000153 2101.8 0
f 45/48/1 46/48/1 47/49/1
f 45/48/1 47/49/1 48/49/1
g 2_38_38
usemtl 1_1_37
v 251.0931 150.33382 149.28737
v 164.55077 150.33382 149.28737
f 46/48/1 49/48/1 50/49/1
f 46/48/1 50/49/1 47/49/1
g 3_39_39
usemtl 1_1_37
v 164.55077 150.83368 151.28737
v 164.55077 151.33354 151.28737
v 251.0931 151.33354 151.28737
v 251.0931 150.83368 151.28737
vt 0.0 105.090004 0
vt 0.025 105.090004 0
vt 0.025 105.19501 0
vt 0.0 105.19501 0
vt -4.322813 105.090004 0
vt -4.322813 105.19501 0
f 48/50/9 47/51/9 51/52/9
f 48/50/9 51/52/9 52/53/9
f 46/50/8 45/51/8 53/52/8
f 46/50/8 53/52/8 54/53/8
f 45/54/4 48/50/4 52/53/4
f 45/54/4 52/53/4 53/55/4
g 4_40_40
usemtl 1_1_37
v 164.55077 150.33382 151.28737
v 251.0931 150.33382 151.28737
vt 4.322813 105.090004 0
vt 4.322813 105.19501 0
f 47/50/9 50/51/9 55/52/9
f 47/50/9 55/52/9 51/53/9
f 50/50/5 49/56/5 56/57/5
f 50/50/5 56/57/5 55/53/5
f 49/50/8 46/51/8 54/52/8
f 49/50/8 54/52/8 56/53/8
g 5_41_41
usemtl 5_5_41
vt -7.6716776 0.07394223 0
vt -7.646684 0.07394223 0
vt -7.6466846 4.4010587 0
vt -7.6716776 4.4010587 0
f 52/58/6 51/59/6 54/60/6
f 52/58/6 54/60/6 53/61/6
g 6_42_42
usemtl 5_5_41
vt -7.6216903 0.07394224 0
vt -7.6216908 4.4010587 0
f 51/59/6 55/62/6 56/63/6
f 51/59/6 56/63/6 54/60/6
g 7_43_43
usemtl 1_1_37
v 251.0931 122.48515 149.28737
v 251.0931 121.98529 149.28737
v 164.55077 121.98529 149.28737
v 164.55077 122.48515 149.28737
f 57/48/1 58/48/1 59/49/1
f 57/48/1 59/49/1 60/49/1
g 8_44_44
usemtl 1_1_37
v 251.0931 121.48543 149.28737
v 164.55077 121.48543 149.28737
f 58/48/1 61/48/1 62/49/1
f 58/48/1 62/49/1 59/49/1
g 9_45_45
usemtl 1_1_37
v 164.55077 121.98529 151.28737
v 164.55077 122.48515 151.28737
v 251.0931 122.48515 151.28737
v 251.0931 121.98529 151.28737
f 60/50/9 59/51/9 63/52/9
f 60/50/9 63/52/9 64/53/9
f 58/50/8 57/51/8 65/52/8
f 58/50/8 65/52/8 66/53/8
f 57/54/4 60/50/4 64/53/4
f 57/54/4 64/53/4 65/55/4
g 10_46_46
usemtl 1_1_37
v 164.55077 121.48543 151.28737
v 251.0931 121.48543 151.28737
f 59/50/9 62/51/9 67/52/9
f 59/50/9 67/52/9 63/53/9
f 62/50/5 61/56/5 68/57/5
f 62/50/5 68/57/5 67/53/5
f 61/50/8 58/51/8 66/52/8
f 61/50/8 66/52/8 68/53/8
g 11_47_47
usemtl 5_5_41
vt -6.229258 0.073942296 0
vt -6.2042646 0.073942296 0
vt -6.2042646 4.4010587 0
vt -6.229258 4.4010587 0
f 64/64/6 63/65/6 66/66/6
f 64/64/6 66/66/6 65/67/6
g 12_48_48
usemtl 5_5_41
vt -6.179271 0.073942296 0
vt -6.1792717 4.4010587 0
f 63/65/6 67/68/6 68/69/6
f 63/65/6 68/69/6 66/66/6
g 13_49_49
usemtl 1_1_37
v 251.0931 94.14287 149.28737
v 251.0931 93.643005 149.28737
v 164.55077 93.643005 149.28737
v 164.55077 94.14287 149.28737
f 69/48/1 70/48/1 71/49/1
f 69/48/1 71/49/1 72/49/1
g 14_50_50
usemtl 1_1_37
v 251.0931 93.14314 149.28737
v 164.55077 93.14314 149.28737
f 70/48/1 73/48/1 74/49/1
f 70/48/1 74/49/1 71/49/1
g 15_51_51
usemtl 1_1_37
v 164.55077 93.643005 151.28737
v 164.55077 94.14287 151.28737
v 251.0931 94.14287 151.28737
v 251.0931 93.643005 151.28737
f 72/50/9 71/51/9 75/52/9
f 72/50/9 75/52/9 76/53/9
f 70/50/8 69/51/8 77/52/8
f 70/50/8 77/52/8 78/53/8
f 69/54/4 72/50/4 76/53/4
f 69/54/4 76/53/4 77/55/4
g 16_52_52
usemtl 1_1_37
v 164.55077 93.14314 151.28737
v 251.0931 93.14314 151.28737
f 71/50/9 74/51/9 79/52/9
f 71/50/9 79/52/9 75/53/9
f 74/50/5 73/56/5 80/57/5
f 74/50/5 80/57/5 79/53/5
f 73/50/8 70/51/8 78/52/8
f 73/50/8 78/52/8 80/53/8
g 17_53_53
usemtl 5_5_41
vt -4.812144 0.073942356 0
vt -4.7871504 0.073942356 0
vt -4.7871504 4.4010587 0
vt -4.812144 4.4010587 0
f 76/70/6 75/71/6 78/72/6
f 76/70/6 78/72/6 77/73/6
g 18_54_54
usemtl 5_5_41
vt -4.762157 0.073942356 0
vt -4.7621574 4.4010587 0
f 75/71/6 79/74/6 80/75/6
f 75/71/6 80/75/6 78/72/6
g 19_55_55
usemtl 1_1_37
v 251.0931 65.29448 149.28737
v 251.0931 64.79462 149.28737
v 164.55077 64.79462 149.28737
v 164.55077 65.29448 149.28737
f 81/48/1 82/48/1 83/49/1
f 81/48/1 83/49/1 84/49/1
g 20_56_56
usemtl 1_1_37
v 251.0931 64.294754 149.28737
v 164.55077 64.294754 149.28737
f 82/48/1 85/48/1 86/49/1
f 82/48/1 86/49/1 83/49/1
g 21_57_57
usemtl 1_1_37
v 164.55077 64.79462 151.28737
v 164.55077 65.29448 151.28737
v 251.0931 65.29448 151.28737
v 251.0931 64.79462 151.28737
f 84/50/9 83/51/9 87/52/9
f 84/50/9 87/52/9 88/53/9
f 82/50/8 81/51/8 89/52/8
f 82/50/8 89/52/8 90/53/8
f 81/54/4 84/50/4 88/53/4
f 81/54/4 88/53/4 89/55/4
g 22_58_58
usemtl 1_1_37
v 164.55077 64.294754 151.28737
v 251.0931 64.294754 151.28737
f 83/50/9 86/51/9 91/52/9
f 83/50/9 91/52/9 87/53/9
f 86/50/5 85/56/5 92/57/5
f 86/50/5 92/57/5 91/53/5
f 85/50/8 82/51/8 90/52/8
f 85/50/8 90/52/8 92/53/8
g 23_59_59
usemtl 5_5_41
vt -3.3697243 0.07394242 0
vt -3.344731 0.07394242 0
vt -3.3447313 4.4010587 0
vt -3.3697245 4.4010587 0
f 88/76/6 87/77/6 90/78/6
f 88/76/6 90/78/6 89/79/6
g 24_60_60
usemtl 5_5_41
vt -3.3197381 0.07394242 0
vt -3.3197381 4.4010587 0
f 87/77/6 91/80/6 92/81/6
f 87/77/6 92/81/6 90/78/6
g 25_61_61
usemtl 1_1_37
v 251.0931 36.952198 149.28737
v 251.0931 36.452335 149.28737
v 164.55077 36.452335 149.28737
v 164.55077 36.952198 149.28737
f 93/48/1 94/48/1 95/49/1
f 93/48/1 95/49/1 96/49/1
g 26_62_62
usemtl 1_1_37
v 251.0931 35.95247 149.28737
v 164.55077 35.95247 149.28737
f 94/48/1 97/48/1 98/49/1
f 94/48/1 98/49/1 95/49/1
g 27_63_63
usemtl 1_1_37
v 164.55077 36.452335 151.28737
v 164.55077 36.952198 151.28737
v 251.0931 36.952198 151.28737
v 251.0931 36.452335 151.28737
f 96/50/9 95/51/9 99/52/9
f 96/50/9 99/52/9 100/53/9
f 94/50/8 93/51/8 101/52/8
f 94/50/8 101/52/8 102/53/8
f 93/54/4 96/50/4 100/53/4
f 93/54/4 100/53/4 101/55/4
g 28_64_64
usemtl 1_1_37
v 164.55077 35.95247 151.28737
v 251.0931 35.95247 151.28737
f 95/50/9 98/51/9 103/52/9
f 95/50/9 103/52/9 99/53/9
f 98/50/5 97/56/5 104/57/5
f 98/50/5 104/57/5 103/53/5
f 97/50/8 94/51/8 102/52/8
f 97/50/8 102/52/8 104/53/8
g 29_65_65
usemtl 5_5_41
vt -1.95261 0.07394248 0
vt -1.927617 0.07394248 0
vt -1.9276171 4.401059 0
vt -1.9526103 4.401059 0
f 100/82/6 99/83/6 102/84/6
f 100/82/6 102/84/6 101/85/6
g 30_66_66
usemtl 5_5_41
vt -1.9026238 0.07394248 0
vt -1.902624 4.401059 0
f 99/83/6 103/86/6 104/87/6
f 99/83/6 104/87/6 102/84/6
g 31_67_67
usemtl 1_1_37
v 209.13885 181.20041 149.28737
v 209.13885 7.2477965 149.28737
v 208.63837 7.2477965 149.28737
v 208.63837 181.20041 149.28737
vt 46.54377 2101.8 0
vt 46.543762 2101.8 0
vt 46.043762 2101.8 0
vt 46.04377 2101.8 0
f 105/88/1 106/89/1 107/90/1
f 105/88/1 107/90/1 108/91/1
g 32_68_68
usemtl 1_1_37
v 208.13785 7.2477965 149.28737
v 208.13788 181.20041 149.28737
vt 45.543762 2101.8 0
vt 45.54377 2101.8 0
f 108/91/1 107/90/1 109/92/1
f 108/91/1 109/92/1 110/93/1
g 33_69_69
usemtl 1_1_37
v 209.13885 7.2477965 151.28737
v 208.63837 7.2477965 151.28737
v 209.13885 181.20041 151.28737
v 208.63837 181.20041 151.28737
vt -8.7 105.090004 0
vt -8.7 105.19501 0
f 107/50/5 106/51/5 111/52/5
f 107/50/5 111/52/5 112/53/5
f 106/94/8 105/50/8 113/53/8
f 106/94/8 113/53/8 111/95/8
f 105/50/4 108/51/4 114/52/4
f 105/50/4 114/52/4 113/53/4
g 34_70_70
usemtl 1_1_37
v 208.13785 7.2477965 151.28737
v 208.13788 181.20041 151.28737
vt 8.7 105.090004 0
vt 8.7 105.19501 0
f 110/50/9 109/96/9 115/97/9
f 110/50/9 115/97/9 116/53/9
f 109/50/5 107/51/5 112/52/5
f 109/50/5 112/52/5 115/53/5
f 108/50/4 110/51/4 116/52/4
f 108/50/4 116/52/4 114/53/4
g 35_71_71
usemtl 5_5_41
vt -9.165021 2.2783215 0
vt -0.46739054 2.2783217 0
vt -0.46739054 2.3033462 0
vt -9.165021 2.303346 0
f 114/98/6 112/99/6 111/100/6
f 114/98/6 111/100/6 113/101/6
g 36_72_72
usemtl 5_5_41
vt -9.165021 2.253297 0
vt -0.46739054 2.253296 0
f 116/102/6 115/103/6 112/99/6
f 116/102/6 112/99/6 114/98/6
g 37_73_73
usemtl 1_1_37
v 187.8552 181.20041 149.28737
v 187.8552 7.2477965 149.28737
v 187.35468 7.2477965 149.28737
v 187.3547 181.20041 149.28737
vt 25.281265 2101.8 0
vt 25.281258 2101.8 0
vt 24.781258 2101.8 0
vt 24.781265 2101.8 0
f 117/104/1 118/105/1 119/106/1
f 117/104/1 119/106/1 120/107/1
g 38_74_74
usemtl 1_1_37
v 186.85419 7.2477965 149.28737
v 186.85419 181.20041 149.28737
vt 24.281258 2101.8 0
vt 24.281265 2101.8 0
f 120/107/1 119/106/1 121/108/1
f 120/107/1 121/108/1 122/109/1
g 39_75_75
usemtl 1_1_37
v 187.8552 7.2477965 151.28737
v 187.35468 7.2477965 151.28737
v 187.8552 181.20041 151.28737
v 187.3547 181.20041 151.28737
f 119/50/5 118/51/5 123/52/5
f 119/50/5 123/52/5 124/53/5
f 118/94/8 117/50/8 125/53/8
f 118/94/8 125/53/8 123/95/8
f 117/50/4 120/51/4 126/52/4
f 117/50/4 126/52/4 125/53/4
g 40_76_76
usemtl 1_1_37
v 186.85419 7.2477965 151.28737
v 186.85419 181.20041 151.28737
f 122/50/9 121/96/9 127/97/9
f 122/50/9 127/97/9 128/53/9
f 121/50/5 119/51/5 124/52/5
f 121/50/5 124/52/5 127/53/5
f 120/50/4 122/51/4 128/52/4
f 120/50/4 128/52/4 126/53/4
g 41_77_77
usemtl 5_5_41
vt -9.165021 1.2141384 0
vt -0.4673905 1.2141373 0
vt -0.4673905 1.2391632 0
vt -9.165021 1.2391628 0
f 126/110/6 124/111/6 123/112/6
f 126/110/6 123/112/6 125/113/6
g 42_78_78
usemtl 5_5_41
vt -9.165021 1.1891124 0
vt -0.4673905 1.1891129 0
f 128/114/6 127/115/6 124/111/6
f 128/114/6 124/111/6 126/110/6
g 43_79_79
usemtl 1_1_37
v 230.42252 181.20041 149.28737
v 230.42252 7.2477965 149.28737
v 229.92203 7.2477965 149.28737
v 229.92203 181.20041 149.28737
vt 67.806274 2101.8 0
vt 67.306274 2101.8 0
f 129/116/1 130/116/1 131/117/1
f 129/116/1 131/117/1 132/117/1
g 44_80_80
usemtl 1_1_37
v 229.42154 7.2477965 149.28737
v 229.42154 181.20041 149.28737
vt 66.806274 2101.8 0
f 132/117/1 131/117/1 133/118/1
f 132/117/1 133/118/1 134/118/1
g 45_81_81
usemtl 1_1_37
v 230.42252 7.2477965 151.28737
v 229.92203 7.2477965 151.28737
v 230.42252 181.20041 151.28737
v 229.92203 181.20041 151.28737
f 131/50/5 130/51/5 135/52/5
f 131/50/5 135/52/5 136/53/5
f 130/94/8 129/50/8 137/53/8
f 130/94/8 137/53/8 135/95/8
f 129/50/4 132/51/4 138/52/4
f 129/50/4 138/52/4 137/53/4
g 46_82_82
usemtl 1_1_37
v 229.42154 7.2477965 151.28737
v 229.42154 181.20041 151.28737
f 134/50/9 133/96/9 139/97/9
f 134/50/9 139/97/9 140/53/9
f 133/50/5 131/51/5 136/52/5
f 133/50/5 136/52/5 139/53/5
f 132/50/4 134/51/4 140/52/4
f 132/50/4 140/52/4 138/53/4
g 47_83_83
usemtl 5_5_41
vt -9.165021 3.3425045 0
vt -0.4673906 3.342505 0
vt -0.4673906 3.3675294 0
vt -9.165021 3.367529 0
f 138/119/6 136/120/6 135/121/6
f 138/119/6 135/121/6 137/122/6
g 48_84_84
usemtl 5_5_41
vt -9.165021 3.31748 0
vt -0.4673906 3.3174806 0
f 140/123/6 139/124/6 136/120/6
f 140/123/6 136/120/6 138/119/6
